<svg xmlns="http://www.w3.org/2000/svg" width="32" height="32" viewBox="0 0 128 128" version="1.1">
    <!-- Promienie - czerwone wypełnione -->
    <path fill="#FF0000" d="m 59.960309,5.514796 c -1.470147,0 -2.664316,1.1941699 -2.664316,2.6643155 l 0,13.4764795 c -6.866062,1.043555 -13.198161,3.738633 -18.588248,7.652162 l -9.480006,-9.480006 c -1.039554,-1.03955 -2.709076,-1.03955 -3.74863,0 l -5.638435,5.607455 c -1.039554,1.03955 -1.039554,2.70908 0,3.74863 l 9.449026,9.449026 c -3.965682,5.395569 -6.66758,11.755731 -7.745104,18.650209 l -13.3215771,0 c -1.470147,0 -2.6643155,1.163189 -2.6643155,2.633335 l 0,7.961966 c 0,1.470146 1.1941685,2.664316 2.6643155,2.664316 l 13.3215771,0 c 1.076156,6.885735 3.787572,13.228068 7.745104,18.619228 l -9.449026,9.449026 c -1.039554,1.039555 -1.039554,2.740052 0,3.779612 l 5.638435,5.60745 c 1.039554,1.03956 2.709076,1.03956 3.74863,0 l 9.480006,-9.480003 c 5.390087,3.913523 11.722186,6.608603 18.588248,7.652163 l 0,13.47648 c 0,1.47014 1.194169,2.63333 2.664316,2.63333 l 7.961966,0 c 1.470147,0 2.664316,-1.16319 2.664316,-2.63333 l 0,-13.53844 c 6.803447,-1.10079 13.067181,-3.82391 18.402365,-7.745105 l 9.665889,9.634905 c 1.03955,1.03956 2.709075,1.03956 3.748625,0 l 5.63844,-5.60745 c 1.03955,-1.03956 1.03955,-2.740057 0,-3.779612 l -9.696869,-9.665889 c 3.878049,-5.345325 6.557609,-11.606631 7.621179,-18.402365 l 13.69334,0 c 1.47015,0 2.66432,-1.19417 2.66432,-2.664316 l 0,-7.961966 c 0,-1.470146 -1.19417,-2.633335 -2.66432,-2.633335 l -13.69334,0 c -1.06357,-6.795735 -3.74313,-13.057041 -7.621179,-18.402366 l 9.696869,-9.696869 c 1.03955,-1.03955 1.03955,-2.70908 0,-3.74863 l -5.63844,-5.607455 c -1.03955,-1.03955 -2.709075,-1.03955 -3.748625,0 l -9.665889,9.634908 C 83.653772,25.541458 77.390038,22.818344 70.586591,21.717552 l 0,-13.5384405 c 0,-1.4701456 -1.194169,-2.6643155 -2.664316,-2.6643155 l -7.961966,0 z"/>
    <!-- Główne słoneczko - zielone wypełnienie -->
    <circle cx="63.74" cy="63.91" r="33.83" fill="#00FF00"/>
    <!-- Lewe oko - czarne -->
    <circle cx="54.3" cy="58" r="4.5" fill="#000000"/>
    <!-- Prawe oko - czarne -->
    <circle cx="73.6" cy="58" r="4.5" fill="#000000"/>
    <!-- Uśmiech - czarny -->
    <path fill="#000000" d="M 48,70 c 0,0 4,8 16,8 c 12,0 16,-8 16,-8 z"/>
</svg>
